<svg width="30" height="30" viewBox="0 0 60 60" fill="none" xmlns="http://www.w3.org/2000/svg">
<g clip-path="url(#clip0_1737_528)">
<g clip-path="url(#clip1_1737_528)">
<path fill-rule="evenodd" clip-rule="evenodd" d="M62.5 33.5C74.9264 33.5 85 23.4264 85 11C85 -1.42641 74.9264 -11.5 62.5 -11.5C50.0736 -11.5 40 -1.42641 40 11C40 23.4264 50.0736 33.5 62.5 33.5ZM62.5 41C79.0685 41 92.5 27.5685 92.5 11C92.5 -5.56854 79.0685 -19 62.5 -19C45.9315 -19 32.5 -5.56854 32.5 11C32.5 27.5685 45.9315 41 62.5 41Z" fill="#979CF1"/>
<path fill-rule="evenodd" clip-rule="evenodd" d="M30 17.5C42.4264 17.5 52.5 7.42641 52.5 -5C52.5 -17.4264 42.4264 -27.5 30 -27.5C17.5736 -27.5 7.5 -17.4264 7.5 -5C7.5 7.42641 17.5736 17.5 30 17.5ZM30 25C46.5685 25 60 11.5685 60 -5C60 -21.5685 46.5685 -35 30 -35C13.4315 -35 0 -21.5685 0 -5C0 11.5685 13.4315 25 30 25Z" fill="#535AE8"/>
<path fill-rule="evenodd" clip-rule="evenodd" d="M-2.5 33.5C9.92641 33.5 20 23.4264 20 11C20 -1.42641 9.92641 -11.5 -2.5 -11.5C-14.9264 -11.5 -25 -1.42641 -25 11C-25 23.4264 -14.9264 33.5 -2.5 33.5ZM-2.5 41C14.0685 41 27.5 27.5685 27.5 11C27.5 -5.56854 14.0685 -19 -2.5 -19C-19.0685 -19 -32.5 -5.56854 -32.5 11C-32.5 27.5685 -19.0685 41 -2.5 41Z" fill="#A371F7"/>
<path fill-rule="evenodd" clip-rule="evenodd" d="M-2.5 71.5C9.92641 71.5 20 61.4264 20 49C20 36.5736 9.92641 26.5 -2.5 26.5C-14.9264 26.5 -25 36.5736 -25 49C-25 61.4264 -14.9264 71.5 -2.5 71.5ZM-2.5 79C14.0685 79 27.5 65.5685 27.5 49C27.5 32.4315 14.0685 19 -2.5 19C-19.0685 19 -32.5 32.4315 -32.5 49C-32.5 65.5685 -19.0685 79 -2.5 79Z" fill="#979CF1"/>
<path fill-rule="evenodd" clip-rule="evenodd" d="M30 87.5C42.4264 87.5 52.5 77.4264 52.5 65C52.5 52.5736 42.4264 42.5 30 42.5C17.5736 42.5 7.5 52.5736 7.5 65C7.5 77.4264 17.5736 87.5 30 87.5ZM30 95C46.5685 95 60 81.5685 60 65C60 48.4315 46.5685 35 30 35C13.4315 35 0 48.4315 0 65C0 81.5685 13.4315 95 30 95Z" fill="#535AE8"/>
<path fill-rule="evenodd" clip-rule="evenodd" d="M62.5 71.5C74.9264 71.5 85 61.4264 85 49C85 36.5736 74.9264 26.5 62.5 26.5C50.0736 26.5 40 36.5736 40 49C40 61.4264 50.0736 71.5 62.5 71.5ZM62.5 79C79.0685 79 92.5 65.5685 92.5 49C92.5 32.4315 79.0685 19 62.5 19C45.9315 19 32.5 32.4315 32.5 49C32.5 65.5685 45.9315 79 62.5 79Z" fill="#A371F7"/>
<mask id="mask0_1737_528" style="mask-type:alpha" maskUnits="userSpaceOnUse" x="32" y="-19" width="61" height="60">
<path fill-rule="evenodd" clip-rule="evenodd" d="M62.5 33.5C74.9264 33.5 85 23.4264 85 11C85 -1.42641 74.9264 -11.5 62.5 -11.5C50.0736 -11.5 40 -1.42641 40 11C40 23.4264 50.0736 33.5 62.5 33.5ZM62.5 41C79.0685 41 92.5 27.5685 92.5 11C92.5 -5.56854 79.0685 -19 62.5 -19C45.9315 -19 32.5 -5.56854 32.5 11C32.5 27.5685 45.9315 41 62.5 41Z" fill="#979CF1"/>
</mask>
<g mask="url(#mask0_1737_528)">
<path fill-rule="evenodd" clip-rule="evenodd" d="M62.5 71.5C74.9264 71.5 85 61.4264 85 49C85 36.5736 74.9264 26.5 62.5 26.5C50.0736 26.5 40 36.5736 40 49C40 61.4264 50.0736 71.5 62.5 71.5ZM62.5 79C79.0685 79 92.5 65.5685 92.5 49C92.5 32.4315 79.0685 19 62.5 19C45.9315 19 32.5 32.4315 32.5 49C32.5 65.5685 45.9315 79 62.5 79Z" fill="#A371F7"/>
</g>
<mask id="mask1_1737_528" style="mask-type:alpha" maskUnits="userSpaceOnUse" x="32" y="-19" width="61" height="60">
<path fill-rule="evenodd" clip-rule="evenodd" d="M62.5 33.5C74.9264 33.5 85 23.4264 85 11C85 -1.42641 74.9264 -11.5 62.5 -11.5C50.0736 -11.5 40 -1.42641 40 11C40 23.4264 50.0736 33.5 62.5 33.5ZM62.5 41C79.0685 41 92.5 27.5685 92.5 11C92.5 -5.56854 79.0685 -19 62.5 -19C45.9315 -19 32.5 -5.56854 32.5 11C32.5 27.5685 45.9315 41 62.5 41Z" fill="#979CF1"/>
</mask>
<g mask="url(#mask1_1737_528)">
<path fill-rule="evenodd" clip-rule="evenodd" d="M62.5 71.5C74.9264 71.5 85 61.4264 85 49C85 36.5736 74.9264 26.5 62.5 26.5C50.0736 26.5 40 36.5736 40 49C40 61.4264 50.0736 71.5 62.5 71.5ZM62.5 79C79.0685 79 92.5 65.5685 92.5 49C92.5 32.4315 79.0685 19 62.5 19C45.9315 19 32.5 32.4315 32.5 49C32.5 65.5685 45.9315 79 62.5 79Z" fill="#979CF1"/>
</g>
</g>
</g>
<defs>
<clipPath id="clip0_1737_528">
<rect width="60" height="60" fill="white"/>
</clipPath>
<clipPath id="clip1_1737_528">
<rect width="60" height="60" rx="30" fill="white"/>
</clipPath>
</defs>
</svg>
